<svg width="32" height="32" viewBox="0 0 32 32" fill="none" xmlns="http://www.w3.org/2000/svg">
<path d="M29 27.4558L24.4944 32L20 32L20 27.4558L24.4944 27.4558L24.4944 9.29031L28.9963 9.29031L28.9963 9.29405L29 9.29405L29 27.4558Z" fill="#1342F0"/>
<path d="M29 27.4558L24.4944 32L20 32L20 27.4558L24.4944 27.4558L24.4944 9.29031L28.9963 9.29031L28.9963 9.29405L29 9.29405L29 27.4558Z" fill="#1342F0"/>
<path d="M20 18.0607V22.7097H15.5046V32H2V18.0607L6.50278 13.4193V27.3587H11.0019V18.0607H20Z" fill="#1342F0"/>
<path d="M20 18.0607V22.7097H15.5046V32H2V18.0607L6.50278 13.4193V27.3587H11.0019V18.0607H20Z" fill="#1342F0"/>
<path d="M11 -1.54878e-06L15.5736 -1.75515e-06L24.7132 -2.16754e-06L24.7132 14.0961L11 14.0961L11 9.39613L20.1472 9.39613L20.1472 4.7L11 4.7L11 -1.54878e-06Z" fill="#1342F0"/>
</svg>
