<svg width="32" height="32" viewBox="0 0 32 32" fill="none" xmlns="http://www.w3.org/2000/svg">
<path d="M29 27.4558L24.4944 32L20 32L20 27.4558L24.4944 27.4558L24.4944 9.29033L28.9963 9.29033L28.9963 9.29407L29 9.29407L29 27.4558Z" fill="#2563EB"/>
<path d="M29 27.4558L24.4944 32L20 32L20 27.4558L24.4944 27.4558L24.4944 9.29033L28.9963 9.29033L28.9963 9.29407L29 9.29407L29 27.4558Z" fill="#2563EB"/>
<path d="M20 18.0607V22.7097H15.5046V32H2V18.0607L6.50278 13.4194V27.3587H11.0019V18.0607H20Z" fill="#2563EB"/>
<path d="M20 18.0607V22.7097H15.5046V32H2V18.0607L6.50278 13.4194V27.3587H11.0019V18.0607H20Z" fill="#2563EB"/>
<path d="M11 1.33514e-05L15.5736 1.31451e-05L24.7132 1.27327e-05L24.7132 14.0961L11 14.0961L11 9.39615L20.1472 9.39614L20.1472 4.70001L11 4.70001L11 1.33514e-05Z" fill="#2563EB"/>
</svg>
